# xmcd
#
# Track frame offsets: 
#        150
#        10304
#        18604
#        27856
#        38707
#        51114
#        63203
#        74451
#        86988
#        95854
#
# Disc length: 1409 seconds
#
# Revision: 0
# Processed by: cddbd v1.5.2PL0 Copyright (c) Steve Scherf et al.
# Submitted via: ExactAudioCopy v0.99pb5
#
DISCID=85057f0a
DTITLE=Johnny Cash - The Sun Records Years - Disc 2
DYEAR=2009
DGENRE=Country
TTITLE0=Get Rhythm
TTITLE1=Guess Things Happen That Way
TTITLE2=Luther Played The Boogie
TTITLE3=Train Of Love
TTITLE4=I Walk The Line
TTITLE5=Home Of The Blues
TTITLE6=Mean Eyed Cat
TTITLE7=Next In Line
TTITLE8=Katy Too
TTITLE9=Hey Porter
EXTD=
EXTT0=
EXTT1=
EXTT2=
EXTT3=
EXTT4=
EXTT5=
EXTT6=
EXTT7=
EXTT8=
EXTT9=
PLAYORDER=
